G04 EAGLE Gerber RS-274X export*
G75*
%MOMM*%
%FSLAX34Y34*%
%LPD*%
%INSolderpaste Top*%
%IPPOS*%
%AMOC8*
5,1,8,0,0,1.08239X$1,22.5*%
G01*
%ADD10C,0.300000*%
%ADD11R,0.600000X0.600000*%
%ADD12R,2.300000X1.600000*%
%ADD13R,1.600000X2.300000*%

G36*
X462538Y453864D02*
X462538Y453864D01*
X462612Y453877D01*
X462768Y453894D01*
X467901Y454915D01*
X467973Y454938D01*
X468125Y454975D01*
X473080Y456658D01*
X473149Y456689D01*
X473295Y456747D01*
X477988Y459061D01*
X478052Y459101D01*
X478190Y459177D01*
X482541Y462085D01*
X482599Y462133D01*
X482725Y462226D01*
X486659Y465676D01*
X486710Y465732D01*
X486824Y465841D01*
X487456Y466561D01*
X487456Y466562D01*
X489014Y468339D01*
X489015Y468339D01*
X490274Y469775D01*
X490317Y469836D01*
X490416Y469959D01*
X493323Y474310D01*
X493358Y474377D01*
X493439Y474512D01*
X495754Y479205D01*
X495779Y479276D01*
X495842Y479420D01*
X497525Y484375D01*
X497541Y484448D01*
X497585Y484599D01*
X498606Y489732D01*
X498613Y489807D01*
X498636Y489962D01*
X498978Y495184D01*
X498975Y495259D01*
X498978Y495416D01*
X498636Y500638D01*
X498623Y500712D01*
X498606Y500868D01*
X497585Y506001D01*
X497563Y506073D01*
X497525Y506225D01*
X495843Y511181D01*
X495811Y511249D01*
X495754Y511395D01*
X493440Y516089D01*
X493399Y516152D01*
X493323Y516290D01*
X490416Y520641D01*
X490368Y520699D01*
X490275Y520826D01*
X486824Y524760D01*
X486769Y524811D01*
X486660Y524924D01*
X482726Y528375D01*
X482664Y528418D01*
X482541Y528516D01*
X478190Y531423D01*
X478124Y531458D01*
X477989Y531540D01*
X473295Y533854D01*
X473225Y533880D01*
X473081Y533943D01*
X468125Y535625D01*
X468052Y535642D01*
X467901Y535685D01*
X462768Y536706D01*
X462693Y536713D01*
X462538Y536736D01*
X457316Y537078D01*
X457241Y537075D01*
X457084Y537078D01*
X451862Y536736D01*
X451788Y536723D01*
X451632Y536706D01*
X446499Y535685D01*
X446427Y535662D01*
X446275Y535625D01*
X441320Y533942D01*
X441251Y533911D01*
X441105Y533854D01*
X436412Y531539D01*
X436348Y531499D01*
X436210Y531423D01*
X431859Y528516D01*
X431801Y528467D01*
X431675Y528374D01*
X427741Y524924D01*
X427690Y524868D01*
X427576Y524759D01*
X424126Y520825D01*
X424083Y520764D01*
X423985Y520641D01*
X421077Y516290D01*
X421042Y516223D01*
X420961Y516088D01*
X418647Y511395D01*
X418621Y511324D01*
X418558Y511180D01*
X416875Y506225D01*
X416859Y506152D01*
X416815Y506001D01*
X415794Y500868D01*
X415788Y500793D01*
X415764Y500638D01*
X415422Y495416D01*
X415425Y495341D01*
X415422Y495184D01*
X415764Y489962D01*
X415777Y489888D01*
X415794Y489732D01*
X416815Y484599D01*
X416838Y484527D01*
X416875Y484375D01*
X418558Y479420D01*
X418589Y479351D01*
X418647Y479205D01*
X420961Y474512D01*
X421001Y474448D01*
X421077Y474310D01*
X423985Y469959D01*
X424033Y469901D01*
X424126Y469775D01*
X427576Y465841D01*
X427632Y465790D01*
X427741Y465676D01*
X431675Y462226D01*
X431736Y462183D01*
X431859Y462085D01*
X436210Y459177D01*
X436277Y459142D01*
X436412Y459061D01*
X441105Y456747D01*
X441176Y456721D01*
X441320Y456658D01*
X446275Y454975D01*
X446348Y454959D01*
X446499Y454915D01*
X451632Y453894D01*
X451707Y453888D01*
X451862Y453864D01*
X457084Y453522D01*
X457159Y453525D01*
X457316Y453522D01*
X462538Y453864D01*
G37*
D10*
X487870Y568000D02*
X487870Y575000D01*
X494870Y575000D01*
X494870Y568000D01*
X487870Y568000D01*
X487870Y570850D02*
X494870Y570850D01*
X494870Y573700D02*
X487870Y573700D01*
X470330Y575000D02*
X470330Y568000D01*
X470330Y575000D02*
X477330Y575000D01*
X477330Y568000D01*
X470330Y568000D01*
X470330Y570850D02*
X477330Y570850D01*
X477330Y573700D02*
X470330Y573700D01*
D11*
X63500Y132000D03*
X63500Y122000D03*
X655400Y673100D03*
X665400Y673100D03*
X266700Y132000D03*
X266700Y122000D03*
X482600Y132000D03*
X482600Y122000D03*
X635000Y119300D03*
X635000Y109300D03*
X779700Y127000D03*
X769700Y127000D03*
X787400Y249000D03*
X787400Y259000D03*
X414100Y584200D03*
X424100Y584200D03*
D12*
X82800Y76200D03*
X145800Y76200D03*
X273300Y50800D03*
X336300Y50800D03*
X489200Y50800D03*
X552200Y50800D03*
X692400Y50800D03*
X755400Y50800D03*
D13*
X901700Y82800D03*
X901700Y145800D03*
X939800Y260600D03*
X939800Y323600D03*
M02*
