M48
;GenerationSoftware,Autodesk,EAGLE,9.6.2*%
;CreationDate,2022-10-11T02:57:44Z*%
FMAT,2
ICI,OFF
METRIC,TZ,000.000
T6C0.800
T5C1.000
T4C1.016
T3C1.200
T2C1.321
T1C2.921
%
G90
M71
T1
X45720Y49530
T2
X83820Y66294
X78740Y66294
X78740Y45466
X83820Y45466
T3
X43260Y38100
X48260Y38100
X53260Y38100
T4
X71120Y29210
X71120Y31750
X71120Y34290
X62230Y29210
X62230Y31750
X62230Y34290
X35560Y72390
X35560Y69850
X35560Y67310
T5
X2540Y77470
X96520Y77470
X96520Y3810
X2540Y2540
T6
X12200Y46990
X12200Y49530
X27440Y46990
X27440Y49530
X12200Y69850
X12200Y72390
X27440Y69850
X27440Y72390
M30